<svg width="8" height="8" viewBox="0 0 8 8" fill="none" xmlns="http://www.w3.org/2000/svg">
<path d="M4.22871 0.00967164C2.38479 -0.126764 0.665881 1.19351 0.146927 3.13412C-0.0260575 3.78077 -0.00746206 4.43865 0.0125398 5.09719C0.0414487 6.05493 0.312567 6.92701 0.848711 7.6982C1.04545 7.98062 1.25406 8.05018 1.56596 7.93704C1.80692 7.84938 2.0457 7.75552 2.28478 7.66451C2.63106 7.5331 2.68888 7.37705 2.51683 7.03361C2.11273 6.22505 1.80911 5.37845 1.67207 4.46764C1.62894 4.17935 1.45861 4.07644 1.19859 4.17281C1.00701 4.24388 0.816989 4.31948 0.598688 4.40378C0.622284 3.03741 1.10967 1.959 2.16477 1.24229C3.33863 0.445127 4.56812 0.428701 5.75666 1.19938C6.85255 1.90938 7.36322 3.00322 7.38697 4.40228C7.16367 4.32048 6.96693 4.24472 6.76801 4.17617C6.52736 4.09337 6.36563 4.19796 6.3164 4.46211C6.28234 4.64481 6.25546 4.82918 6.21467 5.01004C6.04888 5.74552 5.77838 6.43708 5.44257 7.10099C5.31193 7.35928 5.37178 7.54282 5.61774 7.63987C5.90293 7.7525 6.18858 7.86413 6.4772 7.9647C6.73316 8.05387 6.95927 7.97258 7.11788 7.73825C7.22754 7.57696 7.3295 7.4098 7.42338 7.23743C8.01937 6.14058 8.07297 4.93763 7.93999 3.72848C7.71606 1.68696 6.15451 0.152142 4.22871 0.00967164Z" fill="#3B3B3B"/>
</svg>
